<svg width="48" height="48" viewBox="0 0 48 48" fill="none" xmlns="http://www.w3.org/2000/svg">
<g clip-path="url(#clip0_1_234)">
<path d="M47.8286 15.921C47.5331 15.449 46.937 15.2646 46.4262 15.4865C43.3338 16.833 42.3294 18.7269 40.3281 22.5C39.5128 24.0372 38.498 25.9505 37.0776 28.3531C36.9435 28.5799 36.8022 28.8034 36.6573 29.0255C36.7196 27.0127 36.5524 24.9234 36.1517 22.7759C35.5769 19.695 35.0226 17.3518 34.5771 15.469C33.5536 11.1433 33.1706 9.52458 34.3783 6.95881C34.6154 6.45506 34.4483 5.85357 33.9851 5.54439C33.5221 5.23543 32.9023 5.31158 32.5281 5.72378C30.082 8.41766 29.9412 10.5918 29.6324 15.3557C29.6253 15.4656 29.618 15.5773 29.6107 15.6903C29.1466 14.1992 28.6785 12.7329 28.236 11.3474C26.8901 7.13235 25.7277 3.49215 25.3321 1.30585C25.2353 0.770606 24.7694 0.381348 24.2254 0.381348C23.6815 0.381348 23.2156 0.770606 23.1187 1.30585C22.7232 3.49226 21.5607 7.13258 20.2149 11.3476C19.6519 13.1109 19.0512 14.9924 18.4694 16.8908C18.4318 16.3471 18.3987 15.8363 18.3675 15.3557C18.0587 10.5919 17.9179 8.41766 15.4718 5.72378C15.0974 5.31169 14.478 5.23543 14.0148 5.54439C13.5516 5.85357 13.3845 6.45506 13.6216 6.95881C14.8293 9.5247 14.4463 11.1433 13.4228 15.469C12.9774 17.3518 12.423 19.695 11.8482 22.7759C11.4476 24.9234 11.2804 27.0129 11.3427 29.0255C11.1979 28.8035 11.0565 28.5799 10.9224 28.3531C9.50202 25.9505 8.48731 24.0372 7.67191 22.5C5.67062 18.7268 4.66604 16.8329 1.57379 15.4865C1.06329 15.2643 0.466974 15.4489 0.171403 15.921C-0.124055 16.3929 -0.0295803 17.0101 0.393419 17.3721C2.3468 19.0441 2.61301 20.4236 3.40322 24.5186C3.73996 26.2637 4.15902 28.4354 4.83924 31.2332C6.10318 36.4318 8.62857 40.7152 12.1424 43.6205C15.2606 46.1986 19.0888 47.6186 22.9219 47.6186C23.2815 47.6186 23.6432 47.6042 23.9999 47.579C24.3564 47.6041 24.7181 47.6185 25.0779 47.6186C25.0783 47.6186 25.0783 47.6186 25.0788 47.6186C28.9114 47.6186 32.7396 46.1986 35.8575 43.6206C39.3713 40.7153 41.8967 36.4319 43.1606 31.2332C43.8409 28.4354 44.2599 26.2636 44.5967 24.5186C45.3869 20.4236 45.6531 19.0441 47.6065 17.3721C48.0296 17.0101 48.1241 16.393 47.8286 15.921ZM31.9654 14.1723C32.0918 14.734 32.2341 15.3355 32.3882 15.987C32.8282 17.8465 33.3757 20.1605 33.9405 23.1884C34.5425 26.4152 34.5789 29.4854 34.0526 32.3208C32.7595 33.7311 31.3359 35.0687 29.9361 36.3818C28.4693 37.7579 27.0375 39.102 25.8477 40.4647C26.4251 38.0882 27.2814 35.9243 28.1655 33.6904C29.4556 30.431 30.7896 27.0605 31.2558 22.8764C31.2919 22.5521 31.3256 22.2371 31.3577 21.9278C31.3582 21.9246 31.3583 21.9215 31.3587 21.9184C31.6307 19.2998 31.7662 17.2127 31.8772 15.501C31.9078 15.0283 31.9364 14.5864 31.9654 14.1723ZM22.3577 12.0318C23.0536 9.85221 23.7013 7.82382 24.2254 6.04972C24.7497 7.82359 25.3973 9.85198 26.0931 12.0314C27.0807 15.124 28.1966 18.6202 29.1015 21.8746C29.0755 22.1213 29.0487 22.371 29.0201 22.6272C28.5873 26.5124 27.3664 29.597 26.0739 32.8625C25.3366 34.7253 24.5876 36.6177 23.9998 38.67C23.4121 36.6178 22.663 34.7253 21.9258 32.8625C20.6796 29.7141 19.5023 26.7317 19.0314 23.0401C19.9885 19.4518 21.2469 15.5103 22.3577 12.0318ZM14.0595 23.1884C14.6243 20.1605 15.172 17.8465 15.6118 15.987C15.766 15.3355 15.9083 14.734 16.0346 14.1723C16.0635 14.5865 16.0922 15.0283 16.1228 15.5011C16.2469 17.4168 16.4015 19.8008 16.7441 22.8766C17.2103 27.0607 18.5443 30.4312 19.8344 33.6905C20.7185 35.9244 21.5748 38.0883 22.1522 40.4648C20.9624 39.1021 19.5306 37.758 18.0638 36.3819C16.664 35.0687 15.2403 33.7312 13.9473 32.3209C13.4211 29.4854 13.4575 26.4152 14.0595 23.1884ZM7.02498 30.7019C6.35747 27.9564 5.94403 25.8139 5.61191 24.0925C5.54026 23.7211 5.47177 23.3662 5.40463 23.0264C5.49505 23.1964 5.5884 23.3722 5.68468 23.5538C6.51088 25.1117 7.53908 27.0502 8.98589 29.4977C9.8338 30.932 10.8857 32.2762 12.0218 33.5424C12.0533 33.5819 12.0871 33.6192 12.1235 33.6539C13.5426 35.223 15.0858 36.6723 16.5247 38.0223C19.2435 40.5727 21.8329 43.0016 22.6487 45.3661C16.9937 45.245 9.61527 41.3554 7.02498 30.7019ZM42.3881 24.0926C42.0559 25.814 41.6425 27.9564 40.975 30.702C38.3845 41.3566 31.0064 45.2458 25.3512 45.3664C26.167 43.0019 28.7564 40.5729 31.4751 38.0225C32.9143 36.6724 34.4577 35.2228 35.877 33.6535C35.9131 33.619 35.9466 33.582 35.978 33.5429C37.1142 32.2767 38.1661 30.9323 39.0141 29.4979C40.4609 27.0504 41.4891 25.1119 42.3154 23.5541C42.4117 23.3724 42.5051 23.1965 42.5955 23.0266C42.5282 23.3664 42.4597 23.7212 42.3881 24.0926Z" fill="black" fill-opacity="0.5"/>
</g>
<defs>
<clipPath id="clip0_1_234">
<rect width="48" height="48" fill="white"/>
</clipPath>
</defs>
</svg>
