<svg width="91" height="71" viewBox="0 0 91 71" fill="none" xmlns="http://www.w3.org/2000/svg">
<path d="M60.99 69.376L53.7634 63.041L53.3328 62.6631L53.7644 62.2881C58.3763 58.2672 62.0834 54.4424 64.8923 50.8145C67.7177 47.1653 69.5245 44.3951 70.3503 42.4863C71.0755 40.5941 71.7578 38.4343 72.3982 36.0059L72.1052 35.5693C65.8537 35.5314 61.1646 34.1597 58.1453 31.3535C55.0774 28.5022 53.5925 24.1196 53.5925 18.3164C53.5926 13.7726 55.2514 9.66967 58.5349 6.02148C61.7471 2.34663 65.8043 0.5 70.6726 0.5C76.1559 0.500064 80.7617 2.03229 84.4548 5.12207C88.2002 8.25555 90.0192 13.2592 90.0193 20.0059C90.0193 28.9355 87.2459 38.1266 81.7322 47.5713L81.7312 47.5723C76.1253 57.1065 69.4139 64.3966 61.5896 69.4209L61.2732 69.624L60.99 69.376ZM8.41675 69.376L1.18921 63.041L0.759521 62.6631L1.19116 62.2881C5.80217 58.268 9.55752 54.3966 12.4617 50.6738L12.4607 50.6729C15.2932 47.0145 17.0495 44.2934 17.7771 42.4863C18.5016 40.6868 19.1851 38.5283 19.8269 36.0078L19.532 35.5693C13.2804 35.5314 8.59136 34.1597 5.57202 31.3535C2.50419 28.5022 1.01929 24.1196 1.01929 18.3164C1.01938 13.7726 2.6782 9.66967 5.96167 6.02148C9.17385 2.34664 13.2311 0.5 18.0994 0.5C23.5827 0.500068 28.1885 2.03229 31.8816 5.12207C35.6269 8.25555 37.446 13.2592 37.446 20.0059C37.446 28.9355 34.6726 38.1266 29.1589 47.5713L29.158 47.5723C23.5521 57.1065 16.8406 64.3966 9.01636 69.4209L8.69995 69.624L8.41675 69.376Z" fill="#6B0606" stroke="black"/>
</svg>
