<svg width="40" height="40" viewBox="0 0 40 40" fill="none" xmlns="http://www.w3.org/2000/svg">
<g clip-path="url(#clip0_1_164)">
<path d="M39.7838 7.77558C39.3758 6.05242 38.3955 4.34799 37.0237 2.97625C35.6417 1.59419 33.9936 0.642558 32.2575 0.224075C30.5064 -0.198118 28.8009 -0.0194663 27.4552 0.726906C27.0983 0.924925 26.5011 1.25616 24.1504 6.65516C23.2014 8.83482 22.3418 10.9836 22.1088 11.5705L16.773 17.2398C16.4183 16.9059 15.8599 16.9124 15.513 17.2591C15.1596 17.6125 15.1596 18.1856 15.513 18.5391L15.5322 18.5582L0.950601 34.0512C-0.345572 35.4286 -0.311995 37.6372 1.02545 38.9746C1.70792 39.6571 2.61711 39.9999 3.52711 39.9999C4.40028 39.9999 5.27435 39.684 5.94886 39.0494L21.442 24.4677L21.461 24.4868C21.8144 24.8401 22.3875 24.8401 22.741 24.4868C23.0878 24.1399 23.0942 23.5816 22.7604 23.2269L28.4946 17.83C29.091 17.5972 31.205 16.7651 33.3511 15.8445C38.7004 13.5499 39.0394 12.9554 39.2419 12.6002C40.0095 11.2541 40.202 9.54074 39.7838 7.77558ZM4.70835 37.7312C4.04741 38.3533 2.94699 38.3365 2.30524 37.6947C1.66349 37.0531 1.64684 35.9526 2.26868 35.2917L16.8127 19.8385L20.1614 23.1873L4.70835 37.7312ZM21.4801 21.9462L18.0538 18.5198L22.9692 13.2972L23.9834 14.3115C23.9897 14.3179 23.9961 14.3244 24.0026 14.3307L25.6715 15.9994C25.6765 16.0046 25.6814 16.0096 25.6865 16.0145L26.7028 17.0308L21.4801 21.9462ZM37.6931 11.6617C37.0513 12.3068 32.4146 14.3517 28.2246 15.9928L27.694 15.4622L33.0477 11.426C33.4468 11.1251 33.5264 10.5575 33.2255 10.1584C32.9247 9.75957 32.3572 9.67984 31.958 9.98058L26.4016 14.1697L25.8302 13.5983L30.0193 8.04202C30.3202 7.64291 30.2406 7.07537 29.8415 6.77445C29.4423 6.47362 28.8748 6.55326 28.574 6.95228L24.5378 12.3059L23.9839 11.752C25.662 7.5467 27.7302 2.92883 28.3782 2.28508C30.4155 1.19218 33.5031 2.01521 35.744 4.25604C38.0061 6.51823 38.8203 9.62328 37.6931 11.6617Z" fill="#6B0606"/>
</g>
<defs>
<clipPath id="clip0_1_164">
<rect width="40" height="40" fill="white"/>
</clipPath>
</defs>
</svg>
